<?xml version="1.0" encoding="utf-8"?>
<!-- Generator: Adobe Illustrator 22.1.0, SVG Export Plug-In . SVG Version: 6.00 Build 0)  -->
<svg version="1.1" id="Lager_1" xmlns="http://www.w3.org/2000/svg" xmlns:xlink="http://www.w3.org/1999/xlink" x="0px" y="0px"
	 viewBox="0 0 370 312" style="enable-background:new 0 0 370 312;" xml:space="preserve">
<style type="text/css">
	.st0{fill:#475A51;}
</style>
<g>
	<path class="st0" d="M275.3,239.7c-4.8,6.9-10.3,13.4-16.3,19.4c-13.4,13.4-29,23.9-46.4,31.3c-18,7.6-37.1,11.5-56.8,11.5
		c-19.7,0-38.8-3.9-56.8-11.5c-17.4-7.3-33-17.9-46.4-31.3c-13.4-13.4-23.9-29-31.3-46.4C13.9,194.8,10,175.7,10,156
		s3.9-38.8,11.5-56.8c7.3-17.4,17.9-33,31.3-46.4c13.4-13.4,29-23.9,46.4-31.3c18-7.6,37.1-11.5,56.8-11.5s38.8,3.9,56.8,11.5
		c17.4,7.3,33,17.9,46.4,31.3c4.2,4.2,8.2,8.7,11.8,13.4l0.9,1.2l7.6-5.8l0.4-0.1C250,22.5,204.8,0.2,155.8,0.2
		C69.9,0.2,0,70.1,0,156s69.9,155.8,155.8,155.8c51.1,0,99-25.1,128.1-67.1l1.3-1.9l-9-4.5L275.3,239.7z"/>
	<polygon class="st0" points="228.1,88.2 220.4,88.2 220.4,129.4 197.9,88.2 187,88.2 187,142.7 194.7,142.7 194.7,102.3
		216.8,142.7 228.1,142.7 	"/>
	<path class="st0" d="M272,142.7v-29.4c0-9.4-3.7-15.4-12.4-15.4c-11.9,0-18.3,9.2-18.3,9.2l3.5,4.5c0,0,3.8-5.9,9.1-5.9
		c4.7,0,8.2,2.4,8.2,7.6v3.9h-3.8c-10.6,0-20.2,7.9-20.2,15.2c0,6.4,5.1,11.4,10.6,11.4c6.9,0,11.2-3.4,13.4-5.8v4.8H272z
		 M255.3,136.7c-3.7,0-7.8-4.2-7.8-7.4s1.2-5.1,3.2-5.1H262v9.8C260.3,135.4,257.6,136.7,255.3,136.7z"/>
	<path class="st0" d="M320.4,142.7v-29.4c0.2-9.4-3.6-15.4-12.4-15.4c-5.5,0-10.7,4-14.1,7.4v-6.3h-10v43.6h10V111
		c1.8-2.1,4.7-4.9,8.4-4.9c4.7,0,8.2,2,8.2,7.2v29.4H320.4z"/>
	<path class="st0" d="M349.2,98c-10.7,0-19.2,9.7-19.2,23c0,13.2,8.4,22.8,20.4,22.8c10.9,0,19.4-9.7,19.4-22.8
		C369.9,107.8,361.4,98,349.2,98z M354.9,135.3c-12.6,0-17-5.2-17-19.7c0-5.8,3.4-9,7-9c11.2,0,17.3,7.5,17.3,20.3
		C362.1,131.4,359.5,135.3,354.9,135.3z"/>
	<polygon class="st0" points="212.3,164.5 217,157.8 187.8,157.8 187.8,212.3 198.2,212.3 198.2,189.8 208.7,189.8 213.5,183.1
		198.2,183.1 198.2,164.5 	"/>
	<path class="st0" d="M241.7,213.4c10.9,0,19.4-9.7,19.4-22.8c0-13.3-8.5-23-20.7-23c-10.7,0-19.2,9.7-19.2,23
		C221.3,203.8,229.6,213.4,241.7,213.4z M236.1,176.2c11.2,0,17.3,7.5,17.3,20.3c0,4.4-2.6,8.3-7.2,8.3c-12.6,0-17-5.2-17-19.7
		C229.1,179.4,232.5,176.2,236.1,176.2z"/>
	<path class="st0" d="M288,167.6c-10.7,0-19.2,9.7-19.2,23c0,13.2,8.4,22.8,20.4,22.8c10.9,0,19.4-9.7,19.4-22.8
		C308.6,177.4,300.1,167.6,288,167.6z M293.6,204.8c-12.6,0-17-5.2-17-19.7c0-5.8,3.4-9,7-9c11.2,0,17.3,7.5,17.3,20.3
		C300.9,200.9,298.3,204.8,293.6,204.8z"/>
	<path class="st0" d="M345.8,173.6c-2.7-3.5-6.3-6-10.4-6c-9.1,0-19.2,9.7-19.2,23c0,13.2,6.1,22.8,18.1,22.8
		c4.2,0,8.3-3.5,11.4-8.4v7.2h9.6v-60h-9.6V173.6z M345.8,200.4c-1.8,2.8-4.5,5-7.8,5c-9.5,0-13.4-4.2-13.4-18.7
		c0-5.5,2.5-10.6,9.1-10.6c5.4,0,9.6,3.4,12.1,8V200.4z"/>
</g>
</svg>
